<svg xmlns="http://www.w3.org/2000/svg" viewBox="0 0 100 100" preserveAspectRatio="xMidYMid" width="200" height="200" style="shape-rendering: auto; display: block; background: transparent;" xmlns:xlink="http://www.w3.org/1999/xlink"><g><g transform="translate(50 50)">
<g>
<animateTransform repeatCount="indefinite" dur="0.21321961620469085s" keyTimes="0;1" values="0;45" type="rotate" attributeName="transform"></animateTransform><path fill="#ffffff" d="M29.491524206117255 -5.5 L39.491524206117255 -5.5 L39.491524206117255 5.5 L29.491524206117255 5.5 A30 30 0 0 1 24.742744050198738 16.964569457146712 L24.742744050198738 16.964569457146712 L31.813811862064213 24.035637269012188 L24.03563726901219 31.81381186206421 L16.964569457146716 24.742744050198734 A30 30 0 0 1 5.5 29.491524206117255 L5.5 29.491524206117255 L5.500000000000001 39.491524206117255 L-5.4999999999999964 39.491524206117255 L-5.499999999999997 29.491524206117255 A30 30 0 0 1 -16.964569457146705 24.742744050198738 L-16.964569457146705 24.742744050198738 L-24.03563726901218 31.813811862064213 L-31.813811862064213 24.035637269012188 L-24.742744050198738 16.964569457146712 A30 30 0 0 1 -29.491524206117255 5.500000000000009 L-29.491524206117255 5.500000000000009 L-39.491524206117255 5.50000000000001 L-39.491524206117255 -5.500000000000001 L-29.491524206117255 -5.500000000000002 A30 30 0 0 1 -24.742744050198738 -16.964569457146705 L-24.742744050198738 -16.964569457146705 L-31.813811862064213 -24.03563726901218 L-24.035637269012188 -31.813811862064213 L-16.964569457146712 -24.742744050198738 A30 30 0 0 1 -5.500000000000011 -29.491524206117255 L-5.500000000000011 -29.491524206117255 L-5.500000000000012 -39.491524206117255 L5.499999999999998 -39.491524206117255 L5.5 -29.491524206117255 A30 30 0 0 1 16.964569457146702 -24.74274405019874 L16.964569457146702 -24.74274405019874 L24.035637269012177 -31.81381186206422 L31.813811862064213 -24.03563726901219 L24.742744050198738 -16.964569457146716 A30 30 0 0 1 29.491524206117255 -5.500000000000013 M0 -20A20 20 0 1 0 0 20 A20 20 0 1 0 0 -20"></path></g></g><g></g></g><!-- [ldio] generated by https://loading.io --></svg>